# xmcd CD database file
#
# Track frame offsets:
#	150
#	23243
#	50245
#	82302
#	101799
#	125286
#	149701
#	179022
#	202985
#
# Disc length: 2960 seconds
#
# Revision: 0
# Processed by: cddbd v1.5.2PL0 Copyright (c) Steve Scherf et al.
# Submitted via: CDex 1.70beta2
#
DISCID=8d0b8e09
DTITLE=Horace Silver - Cool Eyes
DYEAR=1900
DGENRE=Jazz
TTITLE0=or heaven´s sake
TTITLE1=cool eyes
TTITLE2=senor blues
TTITLE3=the preacher
TTITLE4=to whom it may concern
TTITLE5=hippy
TTITLE6=home cookin´
TTITLE7=hankerin´
TTITLE8=shirt
EXTD=
EXTT0=
EXTT1=
EXTT2=
EXTT3=
EXTT4=
EXTT5=
EXTT6=
EXTT7=
EXTT8=
PLAYORDER=
